<?xml version="1.0" standalone="no"?>
<svg xmlns:xlink="http://www.w3.org/1999/xlink" id="wave" style="transform:rotate(0deg); transition: 0.3s" viewBox="0 0 1440 190" version="1.1" xmlns="http://www.w3.org/2000/svg"><defs><linearGradient id="sw-gradient-0" x1="0" x2="0" y1="1" y2="0"><stop stop-color="rgba(119, 192, 237, 1)" offset="0%"/><stop stop-color="rgba(119, 192, 237, 1)" offset="100%"/></linearGradient></defs><path style="transform:translate(0, 0px); opacity:1" fill="url(#sw-gradient-0)" d="M0,114L60,98.2C120,82,240,51,360,60.2C480,70,600,120,720,129.8C840,139,960,108,1080,91.8C1200,76,1320,76,1440,85.5C1560,95,1680,114,1800,104.5C1920,95,2040,57,2160,63.3C2280,70,2400,120,2520,133C2640,146,2760,120,2880,101.3C3000,82,3120,70,3240,57C3360,44,3480,32,3600,41.2C3720,51,3840,82,3960,104.5C4080,127,4200,139,4320,136.2C4440,133,4560,114,4680,91.8C4800,70,4920,44,5040,57C5160,70,5280,120,5400,133C5520,146,5640,120,5760,117.2C5880,114,6000,133,6120,145.7C6240,158,6360,165,6480,158.3C6600,152,6720,133,6840,117.2C6960,101,7080,89,7200,79.2C7320,70,7440,63,7560,76C7680,89,7800,120,7920,110.8C8040,101,8160,51,8280,31.7C8400,13,8520,25,8580,31.7L8640,38L8640,190L8580,190C8520,190,8400,190,8280,190C8160,190,8040,190,7920,190C7800,190,7680,190,7560,190C7440,190,7320,190,7200,190C7080,190,6960,190,6840,190C6720,190,6600,190,6480,190C6360,190,6240,190,6120,190C6000,190,5880,190,5760,190C5640,190,5520,190,5400,190C5280,190,5160,190,5040,190C4920,190,4800,190,4680,190C4560,190,4440,190,4320,190C4200,190,4080,190,3960,190C3840,190,3720,190,3600,190C3480,190,3360,190,3240,190C3120,190,3000,190,2880,190C2760,190,2640,190,2520,190C2400,190,2280,190,2160,190C2040,190,1920,190,1800,190C1680,190,1560,190,1440,190C1320,190,1200,190,1080,190C960,190,840,190,720,190C600,190,480,190,360,190C240,190,120,190,60,190L0,190Z"/></svg>